<svg xmlns="http://www.w3.org/2000/svg" width="49" height="49" viewBox="0 0 79 79" fill="none">
  <path fill-rule="evenodd" clip-rule="evenodd" d="M39.5 75.05C58.5562 75.05 74.0044 59.1338 74.0044 39.5C74.0044 19.8663 58.5562 3.95 39.5 3.95C20.4437 3.95 4.99557 19.8663 4.99557 39.5C4.99557 59.1338 20.4437 75.05 39.5 75.05ZM39.5 79C60.6736 79 77.8382 61.3152 77.8382 39.5C77.8382 17.6848 60.6736 0 39.5 0C18.3263 0 1.16174 17.6848 1.16174 39.5C1.16174 61.3152 18.3263 79 39.5 79Z" fill="#F6F6F6"/>
  <path d="M24.0072 27.9653H19.4415C19.3867 29.3734 17.4597 31.7727 14.5801 31.7727V35.6476C17.0546 35.6476 18.6641 34.7015 19.1459 33.9354H19.3539V51.0347H24.0072V27.9653Z" fill="#F6F6F6"/>
  <path d="M37.7071 51.35C42.7436 51.35 46.3897 48.5678 46.4115 44.8281C46.3897 41.9444 44.2437 39.5902 41.5503 39.1283V38.9705C43.8933 38.4749 45.5574 36.3798 45.5795 33.8566C45.5574 30.2858 42.229 27.65 37.7071 27.65C33.1523 27.65 29.8239 30.2858 29.8457 33.8566C29.8239 36.3798 31.488 38.4749 33.8749 38.9705V39.1283C31.1376 39.5902 28.9918 41.9444 29.0137 44.8281C28.9918 48.5678 32.6267 51.35 37.7071 51.35ZM37.7071 47.7681C35.4405 47.7681 33.9186 46.4051 33.9407 44.445C33.9186 42.4514 35.5172 41.0094 37.7071 41.0094C39.8641 41.0094 41.4517 42.4514 41.4736 44.445C41.4517 46.4051 39.9407 47.7681 37.7071 47.7681ZM37.7071 37.4611C35.8018 37.4611 34.4442 36.1883 34.4663 34.3636C34.4442 32.5724 35.78 31.3221 37.7071 31.3221C39.6013 31.3221 40.9262 32.5724 40.948 34.3636C40.9262 36.1883 39.5794 37.4611 37.7071 37.4611Z" fill="#F6F6F6"/>
  <path d="M64.4199 37.6414H59.033V32.2908H55.3651V37.6414H49.9782V41.3586H55.3651V46.7092H59.033V41.3586H64.4199V37.6414Z" fill="#F6F6F6"/>
</svg>