<svg xmlns="http://www.w3.org/2000/svg" width="16" height="15" viewBox="0 0 16 15" fill="none">
  <path d="M8.00002 14.5834C6.8636 14.5834 5.79435 14.1404 4.99052 13.3365L0.738434 9.13861C0.312684 8.71828 0.308351 8.03253 0.728684 7.60678C1.14793 7.17995 1.83477 7.17778 2.26052 7.59703L6.51693 11.8004C7.31535 12.5988 8.68685 12.5944 9.47552 11.8047L13.7384 7.59703C14.1631 7.17669 14.8467 7.17995 15.2703 7.60678C15.6906 8.03253 15.6863 8.71828 15.2594 9.13861L11.0019 13.3419C10.2046 14.1414 9.13535 14.5834 7.99893 14.5834H8.00002ZM8.76485 8.81253L15.2638 2.35153C15.6884 1.93011 15.6906 1.24436 15.2681 0.819695C14.8456 0.393945 14.1609 0.391778 13.7363 0.815361L8.0011 6.51694L2.26377 0.815361C1.84018 0.393945 1.15443 0.397195 0.730851 0.819695C0.309434 1.24436 0.311601 1.93011 0.735184 2.35261L7.23627 8.81361C7.44752 9.02378 7.72377 9.12886 8.00002 9.12886C8.27627 9.12886 8.55252 9.02378 8.76377 8.81361L8.76485 8.81253Z" fill="#00C2FF"/>
</svg>