<svg xmlns="http://www.w3.org/2000/svg" width="20" height="20" viewBox="0 0 25 25" fill="none">
  <path d="M13.3708 0.03003C9.75209 -0.214762 6.20938 1.1092 3.65418 3.66753C1.09897 6.22586 -0.219782 9.76857 0.0312592 13.3894C0.489593 20.0082 6.33543 24.9998 13.6292 24.9998H19.7927C22.6646 24.9998 25.0011 22.6634 25.0011 19.7915V12.854C25 6.10607 19.8917 0.472738 13.3708 0.03003ZM7.29168 14.0623C6.42918 14.0623 5.72918 13.3623 5.72918 12.4998C5.72918 11.6373 6.42918 10.9373 7.29168 10.9373C8.15418 10.9373 8.85418 11.6373 8.85418 12.4998C8.85418 13.3623 8.15418 14.0623 7.29168 14.0623ZM12.5 14.0623C11.6375 14.0623 10.9375 13.3623 10.9375 12.4998C10.9375 11.6373 11.6375 10.9373 12.5 10.9373C13.3625 10.9373 14.0625 11.6373 14.0625 12.4998C14.0625 13.3623 13.3625 14.0623 12.5 14.0623ZM17.7083 14.0623C16.8458 14.0623 16.1458 13.3623 16.1458 12.4998C16.1458 11.6373 16.8458 10.9373 17.7083 10.9373C18.5708 10.9373 19.2708 11.6373 19.2708 12.4998C19.2708 13.3623 18.5708 14.0623 17.7083 14.0623Z" fill="#B6B6B6"/>
</svg>