<svg xmlns="http://www.w3.org/2000/svg" width="33" height="33" viewBox="0 0 33 33" fill="none">
  <g filter="url(#filter0_dd_134_139)">
    <path d="M17.8938 3.53487C17.5112 3.19053 17.0147 3 16.5 3C15.9853 3 15.4888 3.19053 15.1062 3.53487L4 13.5307V24.364C4 25.2481 4.35119 26.0959 4.97631 26.7211C5.60143 27.3462 6.44928 27.6974 7.33333 27.6974H25.6667C26.5507 27.6974 27.3986 27.3462 28.0237 26.7211C28.6488 26.0959 29 25.2481 29 24.364V13.5307L17.8938 3.53487ZM19.625 25.6109H13.375V20.3755C13.375 19.5467 13.7042 18.7518 14.2903 18.1658C14.8763 17.5797 15.6712 17.2505 16.5 17.2505C17.3288 17.2505 18.1237 17.5797 18.7097 18.1658C19.2958 18.7518 19.625 19.5467 19.625 20.3755V25.6109ZM26.9167 24.3609C26.9167 24.6924 26.785 25.0104 26.5506 25.2448C26.3161 25.4792 25.9982 25.6109 25.6667 25.6109H21.7083V20.3755C21.7083 18.9942 21.1596 17.6694 20.1828 16.6926C19.2061 15.7159 17.8813 15.1672 16.5 15.1672C15.1187 15.1672 13.7939 15.7159 12.8172 16.6926C11.8404 17.6694 11.2917 18.9942 11.2917 20.3755V25.6109H7.33333C7.00181 25.6109 6.68387 25.4792 6.44945 25.2448C6.21503 25.0104 6.08333 24.6924 6.08333 24.3609V14.4578L16.5 5.08279L26.9167 14.4578V24.3609Z" fill="#EB6C97"/>
  </g>
  <defs>
    <filter id="filter0_dd_134_139" x="0" y="0" width="33" height="32.6973" filterUnits="userSpaceOnUse" color-interpolation-filters="sRGB">
      <feFlood flood-opacity="0" result="BackgroundImageFix"/>
      <feColorMatrix in="SourceAlpha" type="matrix" values="0 0 0 0 0 0 0 0 0 0 0 0 0 0 0 0 0 0 127 0" result="hardAlpha"/>
      <feMorphology radius="1" operator="dilate" in="SourceAlpha" result="effect1_dropShadow_134_139"/>
      <feOffset dy="1"/>
      <feGaussianBlur stdDeviation="1.5"/>
      <feColorMatrix type="matrix" values="0 0 0 0 0 0 0 0 0 0 0 0 0 0 0 0 0 0 0.15 0"/>
      <feBlend mode="normal" in2="BackgroundImageFix" result="effect1_dropShadow_134_139"/>
      <feColorMatrix in="SourceAlpha" type="matrix" values="0 0 0 0 0 0 0 0 0 0 0 0 0 0 0 0 0 0 127 0" result="hardAlpha"/>
      <feOffset dy="1"/>
      <feGaussianBlur stdDeviation="1"/>
      <feColorMatrix type="matrix" values="0 0 0 0 0 0 0 0 0 0 0 0 0 0 0 0 0 0 0.3 0"/>
      <feBlend mode="normal" in2="effect1_dropShadow_134_139" result="effect2_dropShadow_134_139"/>
      <feBlend mode="normal" in="SourceGraphic" in2="effect2_dropShadow_134_139" result="shape"/>
    </filter>
  </defs>
</svg>