<svg xmlns="http://www.w3.org/2000/svg" width="20" height="20" viewBox="0 0 25 25" fill="none">
  <g clip-path="url(#clip0_154_97)">
    <path d="M23.7219 8.04265C23.2335 7.47974 22.6298 7.02836 21.9517 6.71907C21.2736 6.40977 20.537 6.24979 19.7917 6.24995H15.6365L15.9865 4.1239C16.1103 3.37522 15.9609 2.60696 15.5655 1.95926C15.1701 1.31155 14.5551 0.827563 13.8325 0.595562C13.11 0.363561 12.3282 0.399009 11.6296 0.695441C10.931 0.991872 10.3623 1.52953 10.0271 2.21036L8.33337 5.64265V21.8749H19.0625C20.3161 21.8698 21.5263 21.4149 22.4727 20.5928C23.4192 19.7708 24.0392 18.6363 24.2198 17.3958L24.9542 12.1874C25.058 11.4486 25.0017 10.6961 24.7891 9.98095C24.5765 9.26579 24.2125 8.60475 23.7219 8.04265Z" fill="#B6B6B6"/>
    <path d="M0 11.4583V16.6667C0.00165402 18.0475 0.550919 19.3713 1.52731 20.3477C2.50371 21.3241 3.82751 21.8733 5.20833 21.875H6.25V6.25H5.20833C3.82751 6.25165 2.50371 6.80092 1.52731 7.77731C0.550919 8.75371 0.00165402 10.0775 0 11.4583Z" fill="#B6B6B6"/>
  </g>
  <defs>
    <clipPath id="clip0_154_97">
      <rect width="25" height="25" fill="white"/>
    </clipPath>
  </defs>
</svg>