<svg xmlns="http://www.w3.org/2000/svg" width="23" height="33" viewBox="0 0 23 33" fill="none">
  <g filter="url(#filter0_dd_134_157)">
    <path d="M13.3042 7.16667C14.1515 7.16749 14.9639 7.50446 15.563 8.10362C16.1622 8.70277 16.4992 9.51517 16.5 10.3625C16.5 10.6388 16.6097 10.9037 16.8051 11.0991C17.0004 11.2944 17.2654 11.4042 17.5417 11.4042C17.8179 11.4042 18.0829 11.2944 18.2782 11.0991C18.4736 10.9037 18.5833 10.6388 18.5833 10.3625V10.2917C18.5833 10.2719 18.5833 10.2542 18.5833 10.2344C18.5486 8.85701 17.9772 7.54769 16.9911 6.58547C16.0049 5.62326 14.682 5.08425 13.3042 5.08333H12.3333V4.04167C12.3333 3.7654 12.2236 3.50045 12.0282 3.3051C11.8329 3.10975 11.5679 3 11.2917 3C11.0154 3 10.7504 3.10975 10.5551 3.3051C10.3597 3.50045 10.25 3.7654 10.25 4.04167V5.08333H9.27917C8.02637 5.08467 6.81489 5.53149 5.86124 6.34394C4.9076 7.15638 4.27397 8.28148 4.0736 9.51815C3.87323 10.7548 4.11918 12.0224 4.76749 13.0944C5.41581 14.1664 6.42422 14.9729 7.6125 15.3698L10.25 16.25V23.8333H9.27917C8.43183 23.8325 7.61944 23.4955 7.02029 22.8964C6.42113 22.2972 6.08416 21.4848 6.08333 20.6375C6.08333 20.3612 5.97359 20.0963 5.77824 19.9009C5.58289 19.7056 5.31793 19.5958 5.04167 19.5958C4.7654 19.5958 4.50045 19.7056 4.3051 19.9009C4.10975 20.0963 4 20.3612 4 20.6375V20.7083C4 20.7281 4 20.7458 4 20.7656C4.03476 22.143 4.60611 23.4523 5.59225 24.4145C6.5784 25.3767 7.90136 25.9157 9.27917 25.9167H10.25V26.9583C10.25 27.2346 10.3597 27.4996 10.5551 27.6949C10.7504 27.8903 11.0154 28 11.2917 28C11.5679 28 11.8329 27.8903 12.0282 27.6949C12.2236 27.4996 12.3333 27.2346 12.3333 26.9583V25.9167H13.3042C14.557 25.9153 15.7684 25.4685 16.7221 24.6561C17.6757 23.8436 18.3094 22.7185 18.5097 21.4818C18.7101 20.2452 18.4642 18.9776 17.8158 17.9056C17.1675 16.8336 16.1591 16.0271 14.9708 15.6302L12.3333 14.75V7.16667H13.3042ZM14.3146 17.6052C15.0348 17.8449 15.6462 18.3332 16.0393 18.9825C16.4324 19.6319 16.5815 20.4 16.4599 21.1493C16.3384 21.8986 15.9541 22.5801 15.3759 23.0719C14.7976 23.5637 14.0632 23.8336 13.3042 23.8333H12.3333V16.9448L14.3146 17.6052ZM10.25 14.0552L8.27083 13.3948C7.55077 13.1551 6.93949 12.6671 6.54639 12.0179C6.15329 11.3687 6.00403 10.6009 6.12531 9.85174C6.2466 9.1026 6.63052 8.42106 7.20837 7.92911C7.78621 7.43715 8.52027 7.16688 9.27917 7.16667H10.25V14.0552Z" fill="#EB6C97"/>
  </g>
  <defs>
    <filter id="filter0_dd_134_157" x="0" y="0" width="22.5833" height="33" filterUnits="userSpaceOnUse" color-interpolation-filters="sRGB">
      <feFlood flood-opacity="0" result="BackgroundImageFix"/>
      <feColorMatrix in="SourceAlpha" type="matrix" values="0 0 0 0 0 0 0 0 0 0 0 0 0 0 0 0 0 0 127 0" result="hardAlpha"/>
      <feMorphology radius="1" operator="dilate" in="SourceAlpha" result="effect1_dropShadow_134_157"/>
      <feOffset dy="1"/>
      <feGaussianBlur stdDeviation="1.5"/>
      <feColorMatrix type="matrix" values="0 0 0 0 0 0 0 0 0 0 0 0 0 0 0 0 0 0 0.15 0"/>
      <feBlend mode="normal" in2="BackgroundImageFix" result="effect1_dropShadow_134_157"/>
      <feColorMatrix in="SourceAlpha" type="matrix" values="0 0 0 0 0 0 0 0 0 0 0 0 0 0 0 0 0 0 127 0" result="hardAlpha"/>
      <feOffset dy="1"/>
      <feGaussianBlur stdDeviation="1"/>
      <feColorMatrix type="matrix" values="0 0 0 0 0 0 0 0 0 0 0 0 0 0 0 0 0 0 0.3 0"/>
      <feBlend mode="normal" in2="effect1_dropShadow_134_157" result="effect2_dropShadow_134_157"/>
      <feBlend mode="normal" in="SourceGraphic" in2="effect2_dropShadow_134_157" result="shape"/>
    </filter>
  </defs>
</svg>