<svg xmlns="http://www.w3.org/2000/svg" width="33" height="33" viewBox="0 0 33 33" fill="none">
  <g filter="url(#filter0_dd_134_169)">
    <path d="M23.7917 7.16667H22.6448C22.1604 4.79271 20.0562 3 17.5417 3H9.20833C6.33646 3 4 5.33646 4 8.20833V21.5979C4 22.425 4.45312 23.1812 5.18125 23.5708C5.5125 23.749 5.87604 23.8365 6.23854 23.8365C6.67187 23.8365 7.10417 23.7104 7.47812 23.4615L10.551 21.4125C11.2708 23.4281 13.1979 24.875 15.4583 24.875H21.3927L25.5219 27.6292C25.8958 27.8781 26.3281 28.0042 26.7615 28.0042C27.124 28.0042 27.4865 27.9156 27.8187 27.7375C28.5469 27.3469 29 26.5906 29 25.7646V12.375C29 9.50312 26.6635 7.16667 23.7917 7.16667ZM6.32292 21.7281C6.30312 21.7406 6.24583 21.7781 6.16458 21.7354C6.08229 21.6917 6.08229 21.6219 6.08229 21.599V8.20833C6.08229 6.48542 7.48438 5.08333 9.20729 5.08333H17.5406C19.2635 5.08333 20.6656 6.48542 20.6656 8.20833V15.5C20.6656 17.2229 19.2635 18.625 17.5406 18.625H11.2906C10.9719 18.625 10.7271 18.7906 10.7021 18.8073L6.32292 21.7281ZM26.9167 25.7656C26.9167 25.7875 26.9167 25.8583 26.8354 25.9021C26.7521 25.9469 26.6958 25.9083 26.6771 25.8948L22.2865 22.9667C22.1156 22.8531 21.9146 22.7917 21.7083 22.7917H15.4583C14.1 22.7917 12.9427 21.9208 12.5125 20.7083H17.5417C20.4135 20.7083 22.75 18.3719 22.75 15.5V9.25H23.7917C25.5146 9.25 26.9167 10.6521 26.9167 12.375V25.7656ZM10.25 10.2917C10.25 9.36562 10.6573 8.49271 11.3667 7.89687C12.076 7.30104 13.0094 7.04896 13.9323 7.21667C15.1917 7.43646 16.2281 8.47187 16.45 9.73438C16.6823 11.0594 16.0521 12.3833 14.8812 13.0302C14.4156 13.2865 14.4156 13.3615 14.4156 13.4167C14.4156 13.9927 13.949 14.4583 13.374 14.4583C12.799 14.4583 12.3323 13.9927 12.3323 13.4167C12.3323 12.0542 13.4135 11.4594 13.875 11.2052C14.1771 11.0396 14.4948 10.6479 14.3979 10.0948C14.326 9.68646 13.9792 9.33958 13.5719 9.26875C13.2531 9.21042 12.9448 9.29167 12.7052 9.49375C12.4677 9.69167 12.3323 9.98333 12.3323 10.2927C12.3323 10.8687 11.8656 11.3344 11.2906 11.3344C10.7156 11.3344 10.249 10.8687 10.249 10.2927L10.25 10.2917ZM14.4167 16.5417C14.4167 17.1167 13.95 17.5833 13.375 17.5833C12.8 17.5833 12.3333 17.1167 12.3333 16.5417C12.3333 15.9667 12.8 15.5 13.375 15.5C13.95 15.5 14.4167 15.9667 14.4167 16.5417Z" fill="#EB6C97"/>
  </g>
  <defs>
    <filter id="filter0_dd_134_169" x="0" y="0" width="33" height="33.0039" filterUnits="userSpaceOnUse" color-interpolation-filters="sRGB">
      <feFlood flood-opacity="0" result="BackgroundImageFix"/>
      <feColorMatrix in="SourceAlpha" type="matrix" values="0 0 0 0 0 0 0 0 0 0 0 0 0 0 0 0 0 0 127 0" result="hardAlpha"/>
      <feMorphology radius="1" operator="dilate" in="SourceAlpha" result="effect1_dropShadow_134_169"/>
      <feOffset dy="1"/>
      <feGaussianBlur stdDeviation="1.5"/>
      <feColorMatrix type="matrix" values="0 0 0 0 0 0 0 0 0 0 0 0 0 0 0 0 0 0 0.15 0"/>
      <feBlend mode="normal" in2="BackgroundImageFix" result="effect1_dropShadow_134_169"/>
      <feColorMatrix in="SourceAlpha" type="matrix" values="0 0 0 0 0 0 0 0 0 0 0 0 0 0 0 0 0 0 127 0" result="hardAlpha"/>
      <feOffset dy="1"/>
      <feGaussianBlur stdDeviation="1"/>
      <feColorMatrix type="matrix" values="0 0 0 0 0 0 0 0 0 0 0 0 0 0 0 0 0 0 0.3 0"/>
      <feBlend mode="normal" in2="effect1_dropShadow_134_169" result="effect2_dropShadow_134_169"/>
      <feBlend mode="normal" in="SourceGraphic" in2="effect2_dropShadow_134_169" result="shape"/>
    </filter>
  </defs>
</svg>