<svg xmlns="http://www.w3.org/2000/svg" width="25" height="33" viewBox="0 0 25 33" fill="none">
  <g filter="url(#filter0_dd_134_164)">
    <path d="M15.625 3H9.37501C7.99418 3.00165 6.67038 3.55092 5.69398 4.52731C4.71759 5.50371 4.16833 6.82751 4.16667 8.20833V22.7917C4.16833 24.1725 4.71759 25.4963 5.69398 26.4727C6.67038 27.4491 7.99418 27.9983 9.37501 28H15.625C17.0058 27.9983 18.3296 27.4491 19.306 26.4727C20.2824 25.4963 20.8317 24.1725 20.8333 22.7917V8.20833C20.8317 6.82751 20.2824 5.50371 19.306 4.52731C18.3296 3.55092 17.0058 3.00165 15.625 3ZM9.37501 5.08333H15.625C16.4538 5.08333 17.2487 5.41257 17.8347 5.99862C18.4208 6.58468 18.75 7.37953 18.75 8.20833V19.6667H6.25001V8.20833C6.25001 7.37953 6.57925 6.58468 7.1653 5.99862C7.75135 5.41257 8.5462 5.08333 9.37501 5.08333ZM15.625 25.9167H9.37501C8.5462 25.9167 7.75135 25.5874 7.1653 25.0014C6.57925 24.4153 6.25001 23.6205 6.25001 22.7917V21.75H18.75V22.7917C18.75 23.6205 18.4208 24.4153 17.8347 25.0014C17.2487 25.5874 16.4538 25.9167 15.625 25.9167Z" fill="#EB6C97"/>
  </g>
  <defs>
    <filter id="filter0_dd_134_164" x="0.166672" y="0" width="24.6667" height="33" filterUnits="userSpaceOnUse" color-interpolation-filters="sRGB">
      <feFlood flood-opacity="0" result="BackgroundImageFix"/>
      <feColorMatrix in="SourceAlpha" type="matrix" values="0 0 0 0 0 0 0 0 0 0 0 0 0 0 0 0 0 0 127 0" result="hardAlpha"/>
      <feMorphology radius="1" operator="dilate" in="SourceAlpha" result="effect1_dropShadow_134_164"/>
      <feOffset dy="1"/>
      <feGaussianBlur stdDeviation="1.5"/>
      <feColorMatrix type="matrix" values="0 0 0 0 0 0 0 0 0 0 0 0 0 0 0 0 0 0 0.15 0"/>
      <feBlend mode="normal" in2="BackgroundImageFix" result="effect1_dropShadow_134_164"/>
      <feColorMatrix in="SourceAlpha" type="matrix" values="0 0 0 0 0 0 0 0 0 0 0 0 0 0 0 0 0 0 127 0" result="hardAlpha"/>
      <feOffset dy="1"/>
      <feGaussianBlur stdDeviation="1"/>
      <feColorMatrix type="matrix" values="0 0 0 0 0 0 0 0 0 0 0 0 0 0 0 0 0 0 0.3 0"/>
      <feBlend mode="normal" in2="effect1_dropShadow_134_164" result="effect2_dropShadow_134_164"/>
      <feBlend mode="normal" in="SourceGraphic" in2="effect2_dropShadow_134_164" result="shape"/>
    </filter>
  </defs>
</svg>