<svg xmlns="http://www.w3.org/2000/svg" width="33" height="33" viewBox="0 0 33 33" fill="none">
  <g filter="url(#filter0_dd_148_35)">
    <path d="M27.9583 25.9167H7.125C6.84873 25.9167 6.58378 25.8069 6.38843 25.6116C6.19308 25.4162 6.08333 25.1513 6.08333 24.875V4.04167C6.08333 3.7654 5.97359 3.50045 5.77824 3.3051C5.58289 3.10975 5.31793 3 5.04167 3C4.7654 3 4.50045 3.10975 4.3051 3.3051C4.10975 3.50045 4 3.7654 4 4.04167V24.875C4 25.7038 4.32924 26.4987 4.91529 27.0847C5.50134 27.6708 6.2962 28 7.125 28H27.9583C28.2346 28 28.4996 27.8903 28.6949 27.6949C28.8903 27.4996 29 27.2346 29 26.9583C29 26.6821 28.8903 26.4171 28.6949 26.2218C28.4996 26.0264 28.2346 25.9167 27.9583 25.9167Z" fill="#EB6C97"/>
    <path d="M19.625 23.833C19.9013 23.833 20.1662 23.7233 20.3616 23.5279C20.5569 23.3326 20.6667 23.0676 20.6667 22.7913V15.4997C20.6667 15.2234 20.5569 14.9585 20.3616 14.7631C20.1662 14.5678 19.9013 14.458 19.625 14.458C19.3487 14.458 19.0838 14.5678 18.8884 14.7631C18.6931 14.9585 18.5833 15.2234 18.5833 15.4997V22.7913C18.5833 23.0676 18.6931 23.3326 18.8884 23.5279C19.0838 23.7233 19.3487 23.833 19.625 23.833Z" fill="#EB6C97"/>
    <path d="M11.2917 23.833C11.5679 23.833 11.8329 23.7233 12.0282 23.5279C12.2236 23.3326 12.3333 23.0676 12.3333 22.7913V15.4997C12.3333 15.2234 12.2236 14.9585 12.0282 14.7631C11.8329 14.5678 11.5679 14.458 11.2917 14.458C11.0154 14.458 10.7504 14.5678 10.5551 14.7631C10.3597 14.9585 10.25 15.2234 10.25 15.4997V22.7913C10.25 23.0676 10.3597 23.3326 10.5551 23.5279C10.7504 23.7233 11.0154 23.833 11.2917 23.833Z" fill="#EB6C97"/>
    <path d="M23.7917 23.8333C24.0679 23.8333 24.3329 23.7236 24.5282 23.5282C24.7236 23.3329 24.8333 23.0679 24.8333 22.7917V10.2917C24.8333 10.0154 24.7236 9.75045 24.5282 9.5551C24.3329 9.35975 24.0679 9.25 23.7917 9.25C23.5154 9.25 23.2504 9.35975 23.0551 9.5551C22.8597 9.75045 22.75 10.0154 22.75 10.2917V22.7917C22.75 23.0679 22.8597 23.3329 23.0551 23.5282C23.2504 23.7236 23.5154 23.8333 23.7917 23.8333Z" fill="#EB6C97"/>
    <path d="M15.4583 23.8333C15.7346 23.8333 15.9996 23.7236 16.1949 23.5282C16.3903 23.3329 16.5 23.0679 16.5 22.7917V10.2917C16.5 10.0154 16.3903 9.75045 16.1949 9.5551C15.9996 9.35975 15.7346 9.25 15.4583 9.25C15.1821 9.25 14.9171 9.35975 14.7218 9.5551C14.5264 9.75045 14.4167 10.0154 14.4167 10.2917V22.7917C14.4167 23.0679 14.5264 23.3329 14.7218 23.5282C14.9171 23.7236 15.1821 23.8333 15.4583 23.8333Z" fill="#EB6C97"/>
  </g>
  <defs>
    <filter id="filter0_dd_148_35" x="0" y="0" width="33" height="33" filterUnits="userSpaceOnUse" color-interpolation-filters="sRGB">
      <feFlood flood-opacity="0" result="BackgroundImageFix"/>
      <feColorMatrix in="SourceAlpha" type="matrix" values="0 0 0 0 0 0 0 0 0 0 0 0 0 0 0 0 0 0 127 0" result="hardAlpha"/>
      <feMorphology radius="1" operator="dilate" in="SourceAlpha" result="effect1_dropShadow_148_35"/>
      <feOffset dy="1"/>
      <feGaussianBlur stdDeviation="1.5"/>
      <feColorMatrix type="matrix" values="0 0 0 0 0 0 0 0 0 0 0 0 0 0 0 0 0 0 0.15 0"/>
      <feBlend mode="normal" in2="BackgroundImageFix" result="effect1_dropShadow_148_35"/>
      <feColorMatrix in="SourceAlpha" type="matrix" values="0 0 0 0 0 0 0 0 0 0 0 0 0 0 0 0 0 0 127 0" result="hardAlpha"/>
      <feOffset dy="1"/>
      <feGaussianBlur stdDeviation="1"/>
      <feColorMatrix type="matrix" values="0 0 0 0 0 0 0 0 0 0 0 0 0 0 0 0 0 0 0.3 0"/>
      <feBlend mode="normal" in2="effect1_dropShadow_148_35" result="effect2_dropShadow_148_35"/>
      <feBlend mode="normal" in="SourceGraphic" in2="effect2_dropShadow_148_35" result="shape"/>
    </filter>
  </defs>
</svg>