<svg xmlns="http://www.w3.org/2000/svg" width="33" height="33" viewBox="0 0 33 33" fill="none">
  <g filter="url(#filter0_dd_148_34)">
    <path d="M27.9583 14.458H25.875V12.3747C25.875 12.0984 25.7653 11.8335 25.5699 11.6381C25.3746 11.4428 25.1096 11.333 24.8333 11.333C24.5571 11.333 24.2921 11.4428 24.0968 11.6381C23.9014 11.8335 23.7917 12.0984 23.7917 12.3747V14.458H21.7083C21.4321 14.458 21.1671 14.5678 20.9718 14.7631C20.7764 14.9585 20.6667 15.2234 20.6667 15.4997C20.6667 15.7759 20.7764 16.0409 20.9718 16.2362C21.1671 16.4316 21.4321 16.5413 21.7083 16.5413H23.7917V18.6247C23.7917 18.9009 23.9014 19.1659 24.0968 19.3612C24.2921 19.5566 24.5571 19.6663 24.8333 19.6663C25.1096 19.6663 25.3746 19.5566 25.5699 19.3612C25.7653 19.1659 25.875 18.9009 25.875 18.6247V16.5413H27.9583C28.2346 16.5413 28.4996 16.4316 28.6949 16.2362C28.8903 16.0409 29 15.7759 29 15.4997C29 15.2234 28.8903 14.9585 28.6949 14.7631C28.4996 14.5678 28.2346 14.458 27.9583 14.458Z" fill="#EB6C97"/>
    <path d="M13.375 15.5C14.6111 15.5 15.8195 15.1334 16.8473 14.4467C17.8751 13.7599 18.6762 12.7838 19.1492 11.6418C19.6223 10.4997 19.7461 9.24307 19.5049 8.03069C19.2638 6.81831 18.6685 5.70466 17.7944 4.83059C16.9203 3.95651 15.8067 3.36125 14.5943 3.12009C13.3819 2.87894 12.1253 3.00271 10.9832 3.47576C9.84119 3.9488 8.86507 4.74988 8.17832 5.77769C7.49156 6.8055 7.125 8.01387 7.125 9.25C7.12665 10.9071 7.78567 12.4958 8.95741 13.6676C10.1292 14.8393 11.7179 15.4983 13.375 15.5ZM13.375 5.08334C14.1991 5.08334 15.0047 5.32771 15.6899 5.78555C16.3751 6.24339 16.9091 6.89413 17.2245 7.65549C17.5399 8.41685 17.6224 9.25462 17.4616 10.0629C17.3008 10.8711 16.904 11.6136 16.3213 12.1963C15.7386 12.779 14.9961 13.1758 14.1879 13.3366C13.3796 13.4974 12.5418 13.4149 11.7805 13.0995C11.0191 12.7841 10.3684 12.2501 9.91054 11.5649C9.4527 10.8797 9.20833 10.0741 9.20833 9.25C9.20833 8.14493 9.64732 7.08513 10.4287 6.30372C11.2101 5.52232 12.2699 5.08334 13.375 5.08334Z" fill="#EB6C97"/>
    <path d="M13.375 17.583C10.8894 17.5858 8.50647 18.5744 6.74892 20.3319C4.99136 22.0895 4.00276 24.4724 4 26.958C4 27.2343 4.10975 27.4992 4.3051 27.6946C4.50045 27.8899 4.7654 27.9997 5.04167 27.9997C5.31793 27.9997 5.58289 27.8899 5.77824 27.6946C5.97359 27.4992 6.08333 27.2343 6.08333 26.958C6.08333 25.0241 6.85156 23.1695 8.21901 21.802C9.58647 20.4346 11.4411 19.6663 13.375 19.6663C15.3089 19.6663 17.1635 20.4346 18.531 21.802C19.8984 23.1695 20.6667 25.0241 20.6667 26.958C20.6667 27.2343 20.7764 27.4992 20.9718 27.6946C21.1671 27.8899 21.4321 27.9997 21.7083 27.9997C21.9846 27.9997 22.2496 27.8899 22.4449 27.6946C22.6403 27.4992 22.75 27.2343 22.75 26.958C22.7472 24.4724 21.7586 22.0895 20.0011 20.3319C18.2435 18.5744 15.8606 17.5858 13.375 17.583Z" fill="#EB6C97"/>
  </g>
  <defs>
    <filter id="filter0_dd_148_34" x="0" y="0" width="33" height="33" filterUnits="userSpaceOnUse" color-interpolation-filters="sRGB">
      <feFlood flood-opacity="0" result="BackgroundImageFix"/>
      <feColorMatrix in="SourceAlpha" type="matrix" values="0 0 0 0 0 0 0 0 0 0 0 0 0 0 0 0 0 0 127 0" result="hardAlpha"/>
      <feMorphology radius="1" operator="dilate" in="SourceAlpha" result="effect1_dropShadow_148_34"/>
      <feOffset dy="1"/>
      <feGaussianBlur stdDeviation="1.5"/>
      <feColorMatrix type="matrix" values="0 0 0 0 0 0 0 0 0 0 0 0 0 0 0 0 0 0 0.15 0"/>
      <feBlend mode="normal" in2="BackgroundImageFix" result="effect1_dropShadow_148_34"/>
      <feColorMatrix in="SourceAlpha" type="matrix" values="0 0 0 0 0 0 0 0 0 0 0 0 0 0 0 0 0 0 127 0" result="hardAlpha"/>
      <feOffset dy="1"/>
      <feGaussianBlur stdDeviation="1"/>
      <feColorMatrix type="matrix" values="0 0 0 0 0 0 0 0 0 0 0 0 0 0 0 0 0 0 0.3 0"/>
      <feBlend mode="normal" in2="effect1_dropShadow_148_34" result="effect2_dropShadow_148_34"/>
      <feBlend mode="normal" in="SourceGraphic" in2="effect2_dropShadow_148_34" result="shape"/>
    </filter>
  </defs>
</svg>