<svg xmlns="http://www.w3.org/2000/svg" width="32" height="28" viewBox="0 0 32 28" fill="none">
  <g filter="url(#filter0_dd_152_141)">
    <path d="M27.271 10.4193C25.72 7.89327 22.192 3.65527 16 3.65527C9.80801 3.65527 6.28001 7.89327 4.72901 10.4193C4.24953 11.1948 3.99556 12.0885 3.99556 13.0003C3.99556 13.912 4.24953 14.8058 4.72901 15.5813C6.28001 18.1073 9.80801 22.3453 16 22.3453C22.192 22.3453 25.72 18.1073 27.271 15.5813C27.7505 14.8058 28.0045 13.912 28.0045 13.0003C28.0045 12.0885 27.7505 11.1948 27.271 10.4193ZM25.566 14.5343C24.234 16.7003 21.219 20.3453 16 20.3453C10.781 20.3453 7.76601 16.7003 6.43401 14.5343C6.14914 14.0733 5.99826 13.5421 5.99826 13.0003C5.99826 12.4584 6.14914 11.9272 6.43401 11.4663C7.76601 9.30027 10.781 5.65527 16 5.65527C21.219 5.65527 24.234 9.29627 25.566 11.4663C25.8509 11.9272 26.0018 12.4584 26.0018 13.0003C26.0018 13.5421 25.8509 14.0733 25.566 14.5343Z" fill="#EB6C97"/>
    <path d="M16 8C15.0111 8 14.0444 8.29324 13.2222 8.84265C12.3999 9.39206 11.759 10.173 11.3806 11.0866C11.0022 12.0002 10.9031 13.0055 11.0961 13.9755C11.289 14.9454 11.7652 15.8363 12.4645 16.5355C13.1637 17.2348 14.0546 17.711 15.0246 17.9039C15.9945 18.0969 16.9998 17.9978 17.9134 17.6194C18.827 17.241 19.6079 16.6001 20.1574 15.7779C20.7068 14.9556 21 13.9889 21 13C20.9984 11.6744 20.4711 10.4036 19.5338 9.46622C18.5964 8.52888 17.3256 8.00159 16 8ZM16 16C15.4067 16 14.8266 15.8241 14.3333 15.4944C13.8399 15.1648 13.4554 14.6962 13.2284 14.1481C13.0013 13.5999 12.9419 12.9967 13.0576 12.4147C13.1734 11.8328 13.4591 11.2982 13.8787 10.8787C14.2982 10.4591 14.8328 10.1734 15.4147 10.0576C15.9967 9.94189 16.5999 10.0013 17.1481 10.2284C17.6962 10.4554 18.1648 10.8399 18.4944 11.3333C18.8241 11.8266 19 12.4067 19 13C19 13.7957 18.6839 14.5587 18.1213 15.1213C17.5587 15.6839 16.7957 16 16 16Z" fill="#EB6C97"/>
  </g>
  <defs>
    <filter id="filter0_dd_152_141" x="-0.00444031" y="0.655273" width="32.0089" height="26.6904" filterUnits="userSpaceOnUse" color-interpolation-filters="sRGB">
      <feFlood flood-opacity="0" result="BackgroundImageFix"/>
      <feColorMatrix in="SourceAlpha" type="matrix" values="0 0 0 0 0 0 0 0 0 0 0 0 0 0 0 0 0 0 127 0" result="hardAlpha"/>
      <feMorphology radius="1" operator="dilate" in="SourceAlpha" result="effect1_dropShadow_152_141"/>
      <feOffset dy="1"/>
      <feGaussianBlur stdDeviation="1.5"/>
      <feColorMatrix type="matrix" values="0 0 0 0 0 0 0 0 0 0 0 0 0 0 0 0 0 0 0.15 0"/>
      <feBlend mode="normal" in2="BackgroundImageFix" result="effect1_dropShadow_152_141"/>
      <feColorMatrix in="SourceAlpha" type="matrix" values="0 0 0 0 0 0 0 0 0 0 0 0 0 0 0 0 0 0 127 0" result="hardAlpha"/>
      <feOffset dy="1"/>
      <feGaussianBlur stdDeviation="1"/>
      <feColorMatrix type="matrix" values="0 0 0 0 0 0 0 0 0 0 0 0 0 0 0 0 0 0 0.3 0"/>
      <feBlend mode="normal" in2="effect1_dropShadow_152_141" result="effect2_dropShadow_152_141"/>
      <feBlend mode="normal" in="SourceGraphic" in2="effect2_dropShadow_152_141" result="shape"/>
    </filter>
  </defs>
</svg>