<svg xmlns="http://www.w3.org/2000/svg" width="40" height="40" viewBox="0 0 55 55" fill="none">
  <path d="M27.6906 0.730469C12.9729 0.730469 1 12.7213 1 27.4609C1 42.2005 12.9729 54.1913 27.6906 54.1913C42.4082 54.1913 54.3811 42.2005 54.3811 27.4609C54.3811 12.7213 42.4082 0.730469 27.6906 0.730469ZM16.5695 49.2841V47.5087C16.5695 41.3674 21.5584 36.371 27.6906 36.371C33.8227 36.371 38.8116 41.3674 38.8116 47.5087V49.2841C35.4731 50.9971 31.6919 51.9638 27.6906 51.9638C23.6892 51.9638 19.908 50.9971 16.5695 49.2841ZM41.0358 47.9876V47.5087C41.0358 40.1378 35.0505 34.1435 27.6906 34.1435C20.3306 34.1435 14.3453 40.1378 14.3453 47.5087V47.9876C7.65485 43.6105 3.22421 36.0436 3.22421 27.4609C3.22421 13.9509 14.2007 2.958 27.6906 2.958C41.1804 2.958 52.1569 13.9509 52.1569 27.4609C52.1569 36.0436 47.7263 43.6105 41.0358 47.9876ZM27.6906 11.8681C22.7839 11.8681 18.7937 15.8643 18.7937 20.7783C18.7937 25.6922 22.7839 29.6884 27.6906 29.6884C32.5972 29.6884 36.5874 25.6922 36.5874 20.7783C36.5874 15.8643 32.5972 11.8681 27.6906 11.8681ZM27.6906 27.4609C24.0117 27.4609 21.0179 24.4626 21.0179 20.7783C21.0179 17.094 24.0117 14.0957 27.6906 14.0957C31.3694 14.0957 34.3632 17.094 34.3632 20.7783C34.3632 24.4626 31.3694 27.4609 27.6906 27.4609Z" fill="white" stroke="white"/>
</svg>